<?xml version="1.0" encoding="utf-8"?>
<!-- Generator: Adobe Illustrator 22.0.0, SVG Export Plug-In . SVG Version: 6.00 Build 0)  -->
<svg version="1.1" id="Layer_2_1_" xmlns="http://www.w3.org/2000/svg" xmlns:xlink="http://www.w3.org/1999/xlink" x="0px" y="0px"
	 viewBox="0 0 413.9 120" style="enable-background:new 0 0 413.9 120;" xml:space="preserve">
<style type="text/css">
	.st0{fill:#FFFFFF;}
</style>
<g>
	<g id="img">
		<path class="st0" d="M109.7,47.4c0.5,0,1-0.2,1.3-0.6c0.5-0.5,0.7-1.2,0.5-1.9l7.6-7.6h6.2c0.1,0.2,0.2,0.3,0.3,0.5
			c0.7,0.7,1.9,0.7,2.7,0c0.7-0.7,0.7-1.9,0-2.7c-0.7-0.7-1.9-0.7-2.7,0c-0.1,0.1-0.2,0.3-0.3,0.5h-6.9l-8.1,8.1
			c-0.7-0.2-1.4,0-1.9,0.4c-0.7,0.7-0.7,1.9,0,2.7C108.8,47.2,109.2,47.4,109.7,47.4L109.7,47.4z"/>
		<path class="st0" d="M111.1,54.2c0.1-0.1,0.2-0.3,0.3-0.5h13.9c0.1,0.2,0.2,0.3,0.3,0.5c0.7,0.7,1.9,0.7,2.7,0
			c0.7-0.7,0.7-1.9,0-2.7c-0.7-0.7-1.9-0.7-2.7,0c-0.1,0.1-0.2,0.3-0.3,0.5h-13.9c-0.1-0.2-0.2-0.3-0.3-0.5c-0.7-0.7-1.9-0.7-2.7,0
			c-0.7,0.7-0.7,1.9,0,2.7S110.3,54.9,111.1,54.2L111.1,54.2L111.1,54.2z"/>
		<path class="st0" d="M109.7,40.8c0.5,0,1-0.2,1.3-0.6c0.5-0.5,0.7-1.2,0.5-1.9l10-10c0.7,0.2,1.4,0,1.9-0.5c0.7-0.7,0.7-1.9,0-2.7
			c-0.7-0.7-1.9-0.7-2.7,0l0,0c-0.5,0.5-0.7,1.2-0.5,1.9l-10,10c-0.7-0.2-1.4,0-1.9,0.4c-0.7,0.7-0.7,1.9,0,2.7
			C108.8,40.6,109.2,40.8,109.7,40.8L109.7,40.8z"/>
		<path class="st0" d="M109.7,32.8c0.5,0,1-0.2,1.3-0.6c0.5-0.5,0.7-1.2,0.5-1.9l14.9-14.9c0.7,0.3,1.4,0.1,1.9-0.4
			c0.7-0.7,0.7-1.9,0-2.7c-0.7-0.7-1.9-0.7-2.7,0c-0.5,0.5-0.7,1.2-0.5,1.8l-15,15c-0.7-0.2-1.4,0-1.9,0.5c-0.7,0.7-0.7,1.9,0,2.7
			C108.8,32.6,109.2,32.8,109.7,32.8L109.7,32.8z"/>
		<path class="st0" d="M91.9,0c-0.1,0.8,0.4,15.5-2,15.4c-1.6-0.1-4.5-9.8-5.7-13.7C84.2,2.1,85,6,85,6.4c-0.1,2.7,3,10,6.9,19
			S90.3,36,84.7,38.7c-5.7,2.7-11.2-6-14.5-11.2C67.3,23,62.1,15.9,60.6,14c1.5,2.2,7,10.3,5.6,12.1c-1.5,2-14.4-6.4-15.9-7.4
			c0.8,0.6,4.7,3.9,7.5,6c2.9,2.2,7.1-1.2,21.7,17.1h2.9c0.9,0,1.8,0.1,2.7,0.5c0.7,0.3,1.3,0.7,1.7,1.3c0.5,0.6,0.8,1.2,1,1.9
			s0.3,1.5,0.3,2.3c0,0.5-0.1,1-0.2,1.5c-0.2,0.5-0.4,1-0.7,1.5c-0.3,0.5-0.6,0.9-1,1.2c-0.4,0.4-0.8,0.7-1.3,1l-1,0.6l3.8,8.6H85
			l-4.3-10.5h0.6c1.2,0.1,2.3-0.4,3.1-1.2c1.3-1.5,1.3-3.8,0-5.4c-0.8-0.9-1.9-1.3-3.1-1.2h-1.2C84,61.4,67.6,61.4,61.3,61.6
			C54.7,62,47.4,53.9,41.9,53c7,2.4,5.7,6.6,18.8,10.9c-3.4,2.7-11.3,3.5-18.7,2.9c2,0.5,4,0.9,6.1,1.1c5.6,0.4,16.9-2.3,17.4-2.4
			c-0.3,0.3-5.4,4.9-7.2,6.8c-1.8,2-2.4,4.1-8,7.7c2.2-0.3,9.4-5.1,14.3-10.7c5-5.6,8.4-9.5,19.1-4.8s15,18.8,10.8,23.7
			c-16.1,18.5-10.4,31.3-10.2,31.7c-2.5-13.1,8.8-27.8,21-38.5V64.8c-0.3,0-0.7,0-1,0c-6.6-0.5-11.6-6.3-11-12.9
			c0.5-6.3,5.7-11.1,12-11.1V29c-0.4,0.2-0.9,0.4-1.4,0.5C92.2,33.2,92,0.7,91.9,0z"/>
		<path class="st0" d="M126.5,90.3l-15-15c0.2-0.7,0-1.4-0.5-1.9c-0.7-0.7-1.9-0.7-2.7,0c-0.7,0.7-0.7,1.9,0,2.7
			c0.5,0.5,1.2,0.7,1.9,0.5l15,15c-0.2,0.7,0,1.4,0.4,1.9c0.7,0.7,1.9,0.7,2.7,0c0.7-0.7,0.7-1.9,0-2.7
			C127.9,90.3,127.2,90.1,126.5,90.3z"/>
		<path class="st0" d="M110.3,61.9l8.1,8.1h6.9c0.1,0.2,0.2,0.3,0.3,0.5c0.7,0.7,1.9,0.7,2.7,0c0.7-0.7,0.7-1.9,0-2.7
			c-0.7-0.7-1.9-0.7-2.7,0c-0.1,0.1-0.2,0.3-0.3,0.5h-6.2l-7.6-7.6c0.2-0.7,0-1.4-0.5-1.9c-0.7-0.7-1.9-0.7-2.7,0
			c-0.7,0.7-0.7,1.9,0,2.7C108.9,62,109.6,62.1,110.3,61.9z"/>
		<path class="st0" d="M110.3,68.5l10,10c-0.2,0.7,0,1.4,0.5,1.9c0.7,0.7,1.9,0.7,2.7,0c0.7-0.7,0.7-1.9,0-2.7l0,0
			c-0.5-0.5-1.2-0.7-1.9-0.5l-10-10c0.2-0.7,0-1.4-0.4-1.9c-0.7-0.7-1.9-0.7-2.7,0s-0.7,1.9,0,2.7l0,0
			C108.9,68.5,109.6,68.7,110.3,68.5z"/>
	</g>
	<g id="letters">
		<path class="st0" d="M13.8,41.7V55h-2l-0.5-0.6l-5.1-7.7l-3.4-5H0v20.4h2.7V48.9h2.2l4.5,6.8l4.4,6.4h2.8V41.7H13.8z"/>
		<path class="st0" d="M26.4,50.8v2.1h11.9v-2.1H26.4z M26.4,60.1v2.1h13.5v-2.1H26.4z M26.4,41.7v2.1h13.5v-2.1H26.4z"/>
		<path class="st0" d="M62.1,41.7v13.6c0,0.8-0.1,1.5-0.5,2.3c-0.3,0.6-0.7,1.1-1.2,1.5s-1,0.7-1.6,0.9c-1.1,0.3-2.3,0.3-3.4,0
			c-0.6-0.2-1.1-0.5-1.6-0.8c-0.5-0.4-0.9-1-1.2-1.6c-0.3-0.7-0.5-1.5-0.5-2.3V41.7h-2.7v14.6c0,0.9,0.2,1.8,0.6,2.7
			c0.4,0.7,1,1.4,1.7,1.9s1.6,0.9,2.5,1.2c1.9,0.6,4,0.6,5.9,0c0.9-0.2,1.7-0.7,2.5-1.2c0.7-0.5,1.3-1.2,1.7-1.9
			c0.4-0.8,0.6-1.8,0.6-2.7V41.7H62.1z"/>
		<path class="st0" d="M137.5,45.1c-0.3-0.7-0.8-1.3-1.4-1.8c-0.7-0.5-1.4-0.9-2.2-1.1c-1-0.3-1.9-0.4-2.9-0.4h-7.4v2.1h6.8
			c0.6,0,1.1,0.1,1.7,0.3c0.6,0.2,1.1,0.5,1.6,0.9s0.9,0.9,1.2,1.5c0.3,0.7,0.5,1.5,0.5,2.3v6.4c0,0.8-0.1,1.6-0.5,2.3
			c-0.3,0.6-0.7,1.1-1.2,1.6c-0.5,0.4-1,0.7-1.6,0.8c-0.5,0.2-1.1,0.3-1.7,0.3h-6.8v2.1h7.4c0.9,0,1.8-0.1,2.7-0.4
			c0.8-0.2,1.6-0.6,2.3-1.1c0.6-0.5,1.1-1.1,1.5-1.8c0.4-0.8,0.6-1.8,0.6-2.7V48C138,46.8,137.8,45.9,137.5,45.1z"/>
		<path class="st0" d="M157.1,41.7h-3.6l-7.2,20.4h2.9l5-16.8h2.1l5.1,16.8h2.9L157.1,41.7z"/>
		<path class="st0" d="M199.5,41.7h-3.6l-7.2,20.4h2.9l5-16.8h2.1l5.1,16.8h2.9L199.5,41.7z"/>
		<path class="st0" d="M169.3,41.7v2.2h5.8v18.3h2.7V43.9h5.8v-2.2H169.3z"/>
		<path class="st0" d="M380.8,60.1V41.7h-2.7v20.4h13.6V60L380.8,60.1L380.8,60.1z"/>
		<path class="st0" d="M369.9,45.1c-0.4-0.8-1-1.4-1.7-1.9c-0.1-0.1-0.3-0.2-0.4-0.3c-0.6-0.4-1.3-0.7-2-0.9c-1.9-0.6-4-0.6-5.9,0
			c-0.7,0.2-1.4,0.5-2,0.9c-0.1,0.1-0.3,0.2-0.4,0.3c-0.7,0.5-1.3,1.1-1.7,1.9c-0.4,0.8-0.6,1.7-0.6,2.7v8.7c0,0.9,0.2,1.8,0.6,2.7
			c0.4,0.7,1,1.4,1.7,1.9c0.1,0.1,0.3,0.2,0.4,0.3c0.6,0.4,1.3,0.7,2,0.9c1.9,0.6,4,0.6,5.9,0c0.7-0.2,1.4-0.5,2-0.9
			c0.1-0.1,0.3-0.2,0.4-0.3c0.7-0.5,1.3-1.2,1.7-1.9c0.4-0.8,0.6-1.8,0.6-2.7v-8.4C370.5,46.8,370.3,45.9,369.9,45.1z M367.8,55.3
			c0,0.8-0.1,1.5-0.5,2.3c-0.3,0.6-0.7,1.1-1.2,1.5s-1,0.7-1.6,0.9c-1.1,0.3-2.3,0.3-3.4,0c-0.6-0.2-1.1-0.5-1.6-0.8
			c-0.5-0.4-0.9-1-1.2-1.6c-0.3-0.7-0.5-1.5-0.5-2.3v-6.7c0-0.8,0.1-1.5,0.5-2.3c0.3-0.6,0.7-1.1,1.2-1.6c0.5-0.4,1-0.7,1.6-0.8
			c1.1-0.3,2.3-0.3,3.4,0c0.6,0.2,1.1,0.5,1.6,0.9s0.9,0.9,1.2,1.5c0.3,0.7,0.5,1.5,0.5,2.3V55.3z"/>
		<path class="st0" d="M310.8,41.7v2.2h5.8v18.3h2.7V43.9h5.8v-2.2H310.8z"/>
		<path class="st0" d="M346.2,45.1c-0.4-0.8-1-1.4-1.7-1.9c-0.1-0.1-0.3-0.2-0.4-0.3c-0.6-0.4-1.3-0.7-2-0.9c-1.9-0.6-4-0.6-5.9,0
			c-0.7,0.2-1.4,0.5-2,0.9c-0.1,0.1-0.3,0.2-0.4,0.3c-0.7,0.5-1.3,1.1-1.7,1.9c-0.4,0.8-0.6,1.7-0.6,2.7v8.7c0,0.9,0.2,1.8,0.6,2.7
			c0.4,0.7,1,1.4,1.7,1.9c0.1,0.1,0.3,0.2,0.4,0.3c0.6,0.4,1.3,0.7,2,0.9c1.9,0.6,4,0.6,5.9,0c0.7-0.2,1.4-0.5,2-0.9
			c0.1-0.1,0.3-0.2,0.4-0.3c0.7-0.5,1.3-1.2,1.7-1.9c0.4-0.8,0.6-1.8,0.6-2.7v-8.4C346.8,46.8,346.6,45.9,346.2,45.1z M344.1,55.3
			c0,0.8-0.1,1.5-0.5,2.3c-0.3,0.6-0.7,1.1-1.2,1.5s-1,0.7-1.6,0.9c-1.1,0.3-2.3,0.3-3.4,0c-0.6-0.2-1.1-0.5-1.6-0.8
			c-0.5-0.4-0.9-1-1.2-1.6c-0.3-0.7-0.5-1.5-0.5-2.3v-6.7c0-0.8,0.1-1.5,0.5-2.3c0.3-0.6,0.7-1.1,1.2-1.6c0.5-0.4,1-0.7,1.6-0.8
			c1.1-0.3,2.3-0.3,3.4,0c0.6,0.2,1.1,0.5,1.6,0.9s0.9,0.9,1.2,1.5c0.3,0.7,0.5,1.5,0.5,2.3V55.3z"/>
		<path class="st0" d="M410.9,41.7H408h-3.8c-0.9,0-1.8,0.1-2.6,0.4c-0.5,0.2-1,0.5-1.4,0.9c-0.1,0.1-0.2,0.1-0.2,0.2
			c-0.4,0.4-0.7,0.9-0.9,1.5c-0.2,0.7-0.3,1.3-0.3,2c0,0.3,0,0.6,0.1,0.9c0.1,0.4,0.2,0.7,0.4,1c0.2,0.3,0.4,0.6,0.7,0.9
			c0.3,0.3,0.5,0.5,0.9,0.6l0.9,0.4c0,0,7.3,2.3,8.1,3.1c0.6,0.7,0.9,1.7,0.9,2.7s-0.4,2-1.1,2.7c-0.8,0.7-1.8,1.1-2.9,1h-8.3v2.1
			h9.9c0.8,0,1.6-0.1,2.4-0.4c0.6-0.2,1.2-0.6,1.6-1.1c0.5-0.5,0.8-1.1,1-1.7c0.2-0.7,0.4-1.5,0.4-2.3c0-0.4-0.1-0.7-0.2-1.1
			c-0.1-0.4-0.3-0.8-0.5-1.2s-0.5-0.7-0.8-1.1c-0.3-0.3-0.7-0.6-1.1-0.8l-8.6-2.8c-0.7-0.6-1.1-1.5-1-2.4c0-0.9,0.3-1.8,0.9-2.5
			c0.8-0.8,1.9-1.1,3-1h1h7.1v-2.1l0,0L410.9,41.7"/>
		<path class="st0" d="M258.7,41.7h-3.6l-7.2,20.4h2.9l5-16.8h2.1l5.1,16.8h2.9L258.7,41.7z"/>
		<path class="st0" d="M230.1,60.1V41.7h-2.7v20.4H241V60L230.1,60.1L230.1,60.1z"/>
		<path class="st0" d="M289.7,55.5c-0.1-0.4-0.3-0.8-0.5-1.2s-0.5-0.7-0.8-1.1c-0.3-0.3-0.7-0.6-1.1-0.8l-2.5-1.2l2.5-1.2
			c0.3-0.2,0.6-0.4,0.9-0.6c0.3-0.3,0.5-0.6,0.7-0.9c0.2-0.3,0.3-0.7,0.4-1s0.1-0.6,0.1-0.9c0-0.7-0.1-1.4-0.3-2
			c-0.2-0.6-0.5-1.1-0.9-1.5c-0.5-0.5-1-0.8-1.6-1.1c-0.8-0.3-1.7-0.4-2.6-0.4h-9.5V62h9.9c0.8,0,1.6-0.1,2.4-0.4
			c0.6-0.2,1.2-0.6,1.6-1.1c0.5-0.5,0.8-1.1,1-1.7c0.2-0.7,0.4-1.5,0.4-2.3C289.9,56.2,289.8,55.9,289.7,55.5z M277.3,43.9h5.3
			c1.1-0.1,2.2,0.3,3,1c0.6,0.7,0.9,1.6,0.9,2.5s-0.4,1.8-1,2.4c-0.8,0.6-1.9,0.9-2.9,0.9h-5.3V43.9z M285.7,59.1
			c-0.8,0.7-1.8,1.1-2.9,1h-5.5v-7.5h5.5c1.1-0.1,2.2,0.4,3,1.2c0.6,0.7,0.9,1.7,0.9,2.7C286.8,57.4,286.4,58.4,285.7,59.1z"/>
	</g>
</g>
</svg>
